<svg xmlns="http://www.w3.org/2000/svg" fill="none" viewBox="0 0 16 16"><path fill="#997468" d="M8 1a7 7 0 1 1 0 14A7 7 0 0 1 8 1m-.951 1.951a.4.4 0 0 0-.064.024q-.044.019-.108.05a10 10 0 0 0-.796.435.6.6 0 0 0-.18.206c-.007.015-.03.075-.063.168l-.132.377c-.107.309-.247.722-.396 1.169l-.149.443V5.9c0 .06.003.089.016.128.008.027.031.079.062.143a7 7 0 0 0 .354.643.6.6 0 0 0 .164.165 1 1 0 0 0 .085.039l.144.054.204.074.003.001v.001l-.007.004a1 1 0 0 1-.086.04 2.7 2.7 0 0 0-.467.247c-1.184.77-1.666 2.312-1.123 3.597.08.188.199.395.327.567l.046.062-.017.047a.6.6 0 0 0-.05.254c0 .11.016.175.063.271a.7.7 0 0 0 .173.226q.135.13.374.248c.383.19.786.3 1.26.34.147.014.484.011.645-.003 1.103-.1 2.073-.598 2.598-1.335.251-.353.402-.75.457-1.2.007-.063.01-.195.01-.327a4 4 0 0 0-.014-.33 3.4 3.4 0 0 0-.498-1.376l-.059-.093.038-.007a4 4 0 0 0 .887-.353.4.4 0 0 0 .067-.053c.023-.022.039-.035.055-.057a.5.5 0 0 0 .057-.108c.047-.112.123-.327.288-.779.174-.478.419-1.161.459-1.28a.6.6 0 0 0 .034-.182.6.6 0 0 0-.032-.183 9 9 0 0 0-.323-.815.58.58 0 0 0-.27-.265 329 329 0 0 0-2.541-.908 100 100 0 0 0-1.168-.398l-.104-.033-.048-.015a.4.4 0 0 0-.175.001M8.75 4.76l.407.039c.016 0 .041.037.041.058 0 .025-.004.031-.33.456a2 2 0 0 0-.166.23c.005.004.18.046.388.094.407.094.411.095.411.147a.06.06 0 0 1-.02.041c-.016.015-.78.504-1.555.996-.11.07-.156.095-.168.091-.027-.01-.056-.04-.056-.057s.035-.073.335-.537a8 8 0 0 0 .167-.264 4 4 0 0 0-.275-.086 7 7 0 0 1-.31-.097c-.034-.014-.038-.02-.038-.045 0-.018.012-.048.032-.08.07-.115.634-.983.654-1.008q.016-.016.048-.017c.019 0 .214.017.435.039"/></svg>